<svg id="Layer_1" data-name="Layer 1" xmlns="http://www.w3.org/2000/svg" viewBox="0 0 595.28 841.89"><defs><style>.cls-1{fill:none;stroke:#0773ba;stroke-miterlimit:10;stroke-width:8px;}.cls-2{fill:#0773ba;}.cls-3{fill:#4491c6;}</style></defs><title>Artboard 1 copy 8</title><path class="cls-1" d="M338.4,486.78h0l73.82-79.28a5.22,5.22,0,0,1,3.82-1.66h32.9a5.21,5.21,0,0,1,5.21,5.21V542.28a5.21,5.21,0,0,1-5.21,5.21H221.24a5.21,5.21,0,0,1-5.21-5.21V411.05a5.21,5.21,0,0,1,5.21-5.21h39.53a5.18,5.18,0,0,1,3.81,1.66Z"/><path class="cls-2" d="M370.18,236.9v47.6A10.23,10.23,0,0,1,360,294.72H310.22A10.23,10.23,0,0,1,300,284.5V236.9h-6v47.6a16.24,16.24,0,0,0,16.22,16.22h6.84v60.6l9,11.59,9,11.59,9-11.59,9-11.59v-60.6H360a16.24,16.24,0,0,0,16.22-16.22V236.9ZM347.13,359.26l-6,7.74-6,7.73-6-7.73-6-7.73V300.72h24.07Z"/><polygon class="cls-3" points="335.03 422.84 203.22 372.79 206.06 365.32 335.11 414.32 472.21 365.29 474.9 372.82 335.03 422.84"/></svg>