<svg id="Layer_1" data-name="Layer 1" xmlns="http://www.w3.org/2000/svg" viewBox="0 0 595.28 841.89"><defs><style>.cls-1{fill:#0773ba;}.cls-2{fill:#4491c6;}</style></defs><title>Artboard 1 copy 13</title><path class="cls-1" d="M365,367.78H221.76a8.71,8.71,0,0,1-8.7-8.7V299.35a8.71,8.71,0,0,1,8.7-8.71H365a8.71,8.71,0,0,1,8.7,8.71v59.73A8.71,8.71,0,0,1,365,367.78ZM221.76,298.64a.7.7,0,0,0-.7.71v59.73a.7.7,0,0,0,.7.7H365a.7.7,0,0,0,.7-.7V299.35a.71.71,0,0,0-.7-.71Z"/><path class="cls-1" d="M415.75,298.35H398.18V233.24A15.23,15.23,0,0,0,383,218H202.07a15.24,15.24,0,0,0-15.24,15.24v65.11H162.52v62.82h24.31v38.6h8V233.24a7.24,7.24,0,0,1,7.24-7.24H383a7.24,7.24,0,0,1,7.23,7.24V514.31a7.24,7.24,0,0,1-7.23,7.23H332.07v8H383a15.23,15.23,0,0,0,15.23-15.23V361.17h17.57a6.76,6.76,0,0,0,6.75-6.75V305.1A6.76,6.76,0,0,0,415.75,298.35ZM170.52,353.17V306.35h16.31v46.82Zm244,0H398.18V306.35H414.5Z"/><rect class="cls-2" x="256.96" y="325.21" width="47.87" height="8" transform="translate(-150.86 299.74) rotate(-45.62)"/><rect class="cls-2" x="225.63" y="325.21" width="47.87" height="8" transform="translate(-160.28 277.35) rotate(-45.62)"/><path class="cls-1" d="M347,578.94,314.6,508.3a7.63,7.63,0,0,0-10.1-3.75l-8,3.69L276.8,465.4c-.76-1.88-9.07-21.58-27-29-9.95-4.11-20.84-3.64-32.36,1.4l3.21,7.33c9.43-4.13,18.2-4.59,26.05-1.35,15.26,6.28,22.61,24.47,22.68,24.64l19.79,43.15-6.34,2.9a7.64,7.64,0,0,0-3.74,10.1l32.42,70.65a7.64,7.64,0,0,0,6.93,4.44,7.5,7.5,0,0,0,3.17-.7L343.27,589a7.62,7.62,0,0,0,3.74-10.1Zm-28.37,12.6-32.1-69.95L307.48,512l32.1,69.95Z"/><rect class="cls-2" x="200.78" y="417.34" width="4" height="21.05" transform="translate(-252.9 299.25) rotate(-48.88)"/><rect class="cls-2" x="188.79" y="441.31" width="20.51" height="4" transform="matrix(0.99, -0.14, 0.14, 0.99, -62.17, 33.54)"/><rect class="cls-2" x="202.18" y="453.66" width="15.89" height="4" transform="translate(-282.17 552.76) rotate(-76.4)"/><rect class="cls-2" x="222.32" y="450.05" width="4" height="15.36" transform="translate(-170.48 135.28) rotate(-24.65)"/></svg>