<svg id="Layer_1" data-name="Layer 1" xmlns="http://www.w3.org/2000/svg" viewBox="0 0 595.28 841.89"><defs><style>.cls-1{fill:#4591c6;}.cls-2{fill:#fff;}.cls-3{fill:none;stroke:#0773ba;stroke-miterlimit:10;stroke-width:6px;}</style></defs><title>Artboard 1 copy 8</title><polygon class="cls-1" points="338.4 486.78 338.4 486.78 413.77 405.84 454.15 405.84 454.15 547.49 216.03 547.49 216.03 405.84 263.04 405.84 338.4 486.78"/><path class="cls-1" d="M370.18,236.9v47.6A10.23,10.23,0,0,1,360,294.72H310.22A10.23,10.23,0,0,1,300,284.5V236.9h-6v47.6a16.24,16.24,0,0,0,16.22,16.22H360a16.24,16.24,0,0,0,16.22-16.22V236.9Z"/><rect class="cls-2" x="320.06" y="233.72" width="30.07" height="3.18"/><polyline class="cls-3" points="475.89 317.05 338.43 421.54 194.34 309.23"/><polygon class="cls-1" points="347.13 297.95 347.13 359.26 341.11 367 335.09 374.73 329.08 367 323.06 359.26 323.06 297.95 317.06 297.95 317.06 361.32 326.07 372.91 335.09 384.5 344.11 372.91 353.13 361.32 353.13 297.95 347.13 297.95"/></svg>