<svg id="Layer_1" data-name="Layer 1" xmlns="http://www.w3.org/2000/svg" viewBox="0 0 595.28 841.89"><defs><style>.cls-1{fill:#0773ba;}.cls-2{fill:#4491c6;}.cls-3{opacity:0;}</style></defs><title>Artboard 1 copy 7</title><path class="cls-1" d="M369.05,371.21H220.63a14.48,14.48,0,0,1-14.47-14.46V301.68a14.48,14.48,0,0,1,14.47-14.47H369.05a14.48,14.48,0,0,1,14.47,14.47v55.07A14.48,14.48,0,0,1,369.05,371.21ZM220.63,294.64a7.05,7.05,0,0,0-7,7v55.07a7,7,0,0,0,7,7H369.05a7,7,0,0,0,7-7V301.68a7.05,7.05,0,0,0-7-7Z"/><path class="cls-1" d="M345.27,555.63a22.18,22.18,0,0,0-29.49-8.76L280,483.9c-4.88-8.6-14.41-13.74-26.82-14.49-11.83-.71-25,2.68-37.1,9.55l-2.92,1.66a3.71,3.71,0,1,0,3.66,6.46l2.92-1.66c10.87-6.16,22.58-9.22,33-8.59,9.82.59,17.21,4.4,20.81,10.74l35.75,63a22.17,22.17,0,0,0-7.59,29.81l22.45,39.54,6.46-3.67-22.45-39.54a14.79,14.79,0,0,1,5.55-20.16l4.91-2.78a14.79,14.79,0,0,1,20.16,5.55l22.45,39.55,6.46-3.67Z"/><path class="cls-2" d="M224,495.71l12.34,21.73a1.45,1.45,0,0,1-2.52,1.43l-12.34-21.73a14.32,14.32,0,0,0,1.3-.65A12.66,12.66,0,0,0,224,495.71Z"/><path class="cls-2" d="M235.09,521.83a3.69,3.69,0,0,1-3.21-1.86l-13.56-23.89,2.28-1q.54-.24,1.08-.54a9.65,9.65,0,0,0,1-.65l2-1.46,13.57,23.9a3.68,3.68,0,0,1-1.38,5A3.75,3.75,0,0,1,235.09,521.83Z"/><path class="cls-2" d="M197.52,449.07l12.34,21.73a14.32,14.32,0,0,0-1.3.65,14,14,0,0,0-1.22.78L195,450.5a1.44,1.44,0,1,1,2.51-1.43Z"/><path class="cls-2" d="M206.64,475.5l-13.57-23.9a3.67,3.67,0,0,1,1.38-5,3.68,3.68,0,0,1,5,1.38L213,471.87l-2.29,1q-.54.24-1.08.54a11.52,11.52,0,0,0-1,.64Z"/><g class="cls-3"><path class="cls-2" d="M251.11,463.85a1.43,1.43,0,0,1-.54,2l-21.73,12.34a14.32,14.32,0,0,0-.65-1.3,12.66,12.66,0,0,0-.78-1.22l21.73-12.34A1.44,1.44,0,0,1,251.11,463.85Z"/><path class="cls-2" d="M227.77,481.32l-1-2.28a8.94,8.94,0,0,0-.54-1.07,10.36,10.36,0,0,0-.64-1l-1.47-2L248,461.37a3.58,3.58,0,0,1,2.79-.35,3.63,3.63,0,0,1,2.22,1.72h0a3.67,3.67,0,0,1-1.38,5Z"/></g><path class="cls-2" d="M203.15,491.08c.25.42.5.83.78,1.22L182.2,504.64a1.45,1.45,0,0,1-1.43-2.52l21.73-12.34A14.32,14.32,0,0,0,203.15,491.08Z"/><path class="cls-2" d="M181.49,507.05a3.67,3.67,0,0,1-1.82-6.87l23.9-13.56,1,2.28a11.91,11.91,0,0,0,.54,1.07h0a11.61,11.61,0,0,0,.65,1l1.46,2-23.9,13.56A3.58,3.58,0,0,1,181.49,507.05Z"/><path class="cls-2" d="M213.26,498.16l-6.64,24.09a1.43,1.43,0,0,1-.68.87,1.4,1.4,0,0,1-1.1.14,1.45,1.45,0,0,1-1-1.78l6.64-24.09A14.25,14.25,0,0,0,213.26,498.16Z"/><path class="cls-2" d="M205.23,525.54a3.62,3.62,0,0,1-1-.13,3.69,3.69,0,0,1-2.57-4.51l7.3-26.49,2.31.9a11.21,11.21,0,0,0,2.33.65l2.45.4-7.3,26.48a3.68,3.68,0,0,1-3.54,2.7Z"/><path class="cls-2" d="M227.51,446.45l-6.64,24.1a14.06,14.06,0,0,0-2.79-.77l6.65-24.09a1.44,1.44,0,0,1,1.78-1A1.43,1.43,0,0,1,227.51,446.45Z"/><path class="cls-2" d="M222.37,473.53l-2.31-.91a11.74,11.74,0,0,0-2.34-.64l-2.45-.4,7.31-26.49a3.69,3.69,0,0,1,1.72-2.21,3.67,3.67,0,0,1,5,1.39,3.56,3.56,0,0,1,.34,2.78Zm4.51-27.26h0Z"/><g class="cls-3"><path class="cls-2" d="M255,494.8a1.45,1.45,0,0,1-.68.88,1.42,1.42,0,0,1-1.09.13l-24.1-6.64a13.59,13.59,0,0,0,.77-2.79L254,493A1.45,1.45,0,0,1,255,494.8Z"/><path class="cls-2" d="M253.58,498.1a3.48,3.48,0,0,1-1-.15l-26.46-7.29.91-2.3a12.12,12.12,0,0,0,.64-2.34l.4-2.45,26.48,7.3a3.67,3.67,0,0,1,2.57,4.53h0a3.72,3.72,0,0,1-3.53,2.7Zm1.38-3.3h0Zm-1.2-1.14h0Z"/></g><path class="cls-2" d="M202.25,478.77a14,14,0,0,0-.77,2.78l-24.09-6.64a1.45,1.45,0,0,1,.77-2.79Z"/><path class="cls-2" d="M203.26,484.36l-26.46-7.3a3.67,3.67,0,1,1,1.95-7.08l26.47,7.29-.89,2.3a12.9,12.9,0,0,0-.65,2.36Z"/><path class="cls-2" d="M275.44,309l-1.56-1.3h0l-1.52-1.27a1.56,1.56,0,0,0-1.1-.34,1.49,1.49,0,0,0-1,.55l-33.59,41.85a1.51,1.51,0,0,0,.21,2.08l1.56,1.29h0l1.52,1.26a1.47,1.47,0,0,0,1,.35h.15a1.49,1.49,0,0,0,1-.55l33.59-41.85A1.47,1.47,0,0,0,275.44,309Z"/><path class="cls-2" d="M299.36,309l-1.56-1.3h0l-1.52-1.26a1.57,1.57,0,0,0-1.1-.34,1.49,1.49,0,0,0-1,.55l-33.59,41.85a1.5,1.5,0,0,0,.21,2.08l1.56,1.29h0l1.52,1.26a1.47,1.47,0,0,0,.95.35H265a1.49,1.49,0,0,0,1-.55l33.59-41.85A1.48,1.48,0,0,0,299.36,309Z"/><path class="cls-1" d="M348.47,222H241.22a53.2,53.2,0,0,0-53.15,53.14V430.83h7.43V275.14a45.77,45.77,0,0,1,45.72-45.71H348.47a45.77,45.77,0,0,1,45.71,45.71V475.4a45.77,45.77,0,0,1-45.71,45.72h-19.3v7.43h19.37a53.21,53.21,0,0,0,53.07-53.15V275.14A53.2,53.2,0,0,0,348.47,222Z"/><path class="cls-1" d="M195.5,367H182.58a21.54,21.54,0,0,1-21.52-21.52V327.78a21.54,21.54,0,0,1,21.52-21.51H195.5ZM182.58,313.7a14.1,14.1,0,0,0-14.09,14.08V345.5a14.1,14.1,0,0,0,14.09,14.09h5.49V313.7Z"/><path class="cls-1" d="M404.13,367h-9.95V306.27h9.95a21.54,21.54,0,0,1,21.52,21.51V345.5A21.54,21.54,0,0,1,404.13,367Zm-2.52-7.43h2.52a14.1,14.1,0,0,0,14.09-14.09V327.78a14.1,14.1,0,0,0-14.09-14.08h-2.52Z"/></svg>